<?xml version="1.0" standalone="no"?>
<!DOCTYPE svg PUBLIC "-//W3C//DTD SVG 20010904//EN"
 "http://www.w3.org/TR/2001/REC-SVG-20010904/DTD/svg10.dtd">
<svg version="1.0" xmlns="http://www.w3.org/2000/svg"
 width="256.000000pt" height="256.000000pt" viewBox="0 0 256.000000 256.000000"
 preserveAspectRatio="xMidYMid meet">
<metadata>
Created by potrace 1.11, written by Peter Selinger 2001-2013
</metadata>
<g transform="translate(0.000000,256.000000) scale(0.100000,-0.100000)"
fill="#000000" stroke="none">
<path d="M1214 2220 c-12 -5 -24 -15 -27 -24 -4 -9 -13 -16 -21 -16 -8 0 -21
-9 -29 -21 l-15 -21 -7 23 c-7 23 -8 22 -22 -6 -10 -19 -17 -24 -23 -16 -5 9
-9 8 -14 -5 -6 -16 -8 -16 -16 -4 -8 13 -10 12 -10 -2 0 -12 -17 -21 -55 -33
-49 -14 -56 -20 -62 -45 -3 -17 -10 -30 -15 -30 -23 0 -58 -54 -58 -91 0 -21
-5 -50 -10 -64 -6 -15 -13 -53 -16 -86 -4 -46 -2 -58 8 -54 10 4 13 -5 13 -32
0 -21 4 -51 8 -67 8 -27 7 -28 -9 -15 -16 13 -17 12 -10 -6 5 -11 9 -36 11
-55 4 -49 15 -111 24 -135 5 -11 15 -48 24 -82 17 -70 8 -90 -37 -79 -22 5
-23 3 -21 -32 3 -45 13 -72 29 -73 6 -1 22 -2 36 -2 19 -2 27 -11 39 -47 8
-25 17 -74 21 -110 7 -56 7 -52 4 28 l-4 93 39 -48 c50 -63 60 -70 100 -71 19
0 37 -6 41 -13 6 -8 9 -8 11 0 3 9 12 9 37 0 23 -8 41 -8 62 0 17 5 30 6 30 2
0 -8 87 -7 143 2 28 4 87 52 87 70 0 5 13 24 29 43 l30 33 3 -27 c4 -26 4 -26
21 11 15 35 20 38 45 32 20 -4 33 -1 44 12 18 21 33 122 15 104 -16 -16 -48
-14 -68 5 -20 18 -12 62 18 98 17 20 17 20 0 7 -17 -13 -18 -12 -11 15 4 16
16 48 26 72 16 34 24 43 41 40 20 -3 22 -9 22 -63 0 -33 -4 -71 -9 -84 -6 -18
-5 -22 5 -19 8 3 17 20 21 39 3 19 13 52 22 74 8 22 15 49 14 60 0 17 -1 17
-5 3 -2 -10 -9 -18 -14 -18 -5 0 -3 13 5 29 9 16 15 49 14 73 0 24 3 62 6 85
5 24 3 43 -2 47 -6 3 -8 14 -5 25 5 19 -48 134 -67 146 -5 3 -10 11 -10 16 0
6 5 7 12 3 7 -5 8 -3 4 5 -5 7 -10 10 -13 7 -6 -6 -43 37 -43 49 0 4 8 1 18
-6 14 -11 13 -10 -2 9 -11 12 -25 22 -32 22 -7 0 -21 13 -30 30 -13 21 -21 26
-27 17 -5 -7 -6 -4 -2 10 4 16 -4 30 -32 57 -47 44 -138 89 -164 81 -11 -4
-19 -2 -19 5 0 6 5 8 12 4 6 -4 8 -3 5 3 -8 13 -47 24 -47 14 0 -9 -71 -8 -85
1 -6 3 -19 2 -31 -2z m271 -110 c3 -5 2 -10 -4 -10 -5 0 -13 5 -16 10 -3 6 -2
10 4 10 5 0 13 -4 16 -10z m41 -21 c19 -22 19 -22 -3 -8 -13 8 -23 17 -23 21
0 12 6 9 26 -13z m-57 -75 c14 -12 -19 -1 -35 12 -18 14 -18 14 6 3 14 -6 27
-13 29 -15z m176 -91 c25 -51 34 -85 14 -50 -6 9 -14 15 -19 12 -4 -3 -6 4 -3
14 3 12 -7 37 -26 65 -17 24 -31 48 -31 53 1 15 40 -42 65 -94z m-275 77 c8
-5 11 -13 6 -17 -5 -4 -11 -2 -13 5 -3 6 -11 12 -19 12 -9 0 -12 -5 -8 -12 4
-7 3 -8 -5 -4 -13 9 -5 26 12 26 7 0 19 -4 27 -10z m191 -7 c13 -16 12 -17 -3
-4 -10 7 -18 15 -18 17 0 8 8 3 21 -13z m-376 -24 c33 -11 70 -27 83 -35 28
-18 28 -7 0 23 -30 32 -16 39 19 9 17 -14 33 -23 36 -20 3 3 14 1 26 -5 13 -7
22 -8 26 -1 11 18 22 11 35 -21 10 -22 18 -29 32 -26 10 3 21 1 24 -4 3 -5 10
-9 16 -9 6 0 6 6 -2 15 -7 9 -10 18 -7 22 4 3 9 -2 13 -11 3 -9 9 -14 13 -11
4 2 8 -2 8 -9 0 -11 -13 -13 -51 -10 -35 3 -57 0 -71 -10 -20 -15 -20 -15 0
-15 38 0 71 -8 96 -24 14 -10 28 -15 31 -12 3 3 11 -3 19 -12 13 -17 12 -17
-6 -4 -11 7 -6 0 11 -15 35 -33 85 -129 78 -149 -3 -8 -1 -22 6 -32 9 -16 10
-15 4 6 -4 16 -3 21 5 17 14 -9 15 -146 0 -146 -5 0 -7 -5 -4 -10 4 -6 2 -16
-3 -23 -5 -7 -9 -31 -8 -55 0 -23 -2 -42 -6 -42 -4 0 -10 -25 -14 -56 -3 -30
-14 -75 -23 -100 -14 -35 -20 -41 -30 -31 -10 10 -11 9 -6 -5 7 -17 -31 -47
-137 -107 -52 -29 -66 -32 -140 -33 -83 0 -97 3 -208 54 -105 49 -117 68 -160
264 -27 124 -26 336 1 292 7 -10 9 -11 9 0 0 7 4 11 9 8 4 -3 7 6 5 20 -1 15
11 52 27 84 37 74 92 106 188 109 38 2 8 26 -36 29 -40 3 -56 12 -35 19 6 3
10 9 6 14 -3 5 -2 9 3 8 15 -2 53 13 53 22 0 5 12 9 28 9 l27 1 -27 15 c-16 8
-28 17 -28 19 0 7 0 7 65 -16z m-95 1 c0 -5 -2 -10 -4 -10 -3 0 -8 5 -11 10
-3 6 -1 10 4 10 6 0 11 -4 11 -10z m-40 -20 c0 -5 -4 -10 -10 -10 -5 0 -10 5
-10 10 0 6 5 10 10 10 6 0 10 -4 10 -10z m530 -71 c0 -5 -4 -9 -10 -9 -5 0
-10 7 -10 16 0 8 5 12 10 9 6 -3 10 -10 10 -16z m60 -29 c0 -5 -2 -10 -4 -10
-3 0 -8 5 -11 10 -3 6 -1 10 4 10 6 0 11 -4 11 -10z m105 -60 c21 -40 19 -48
-5 -17 -19 23 -26 47 -15 47 2 0 11 -13 20 -30z m-10 -167 c-9 -15 -13 -19
-10 -8 4 11 10 29 13 40 3 11 7 14 9 8 3 -7 -3 -24 -12 -40z"/>
<path d="M980 1790 c0 -5 5 -10 10 -10 6 0 10 5 10 10 0 6 -4 10 -10 10 -5 0
-10 -4 -10 -10z"/>
<path d="M989 1733 c-13 -14 -17 -23 -9 -18 8 4 -1 -6 -20 -24 l-35 -31 40 16
c22 9 72 18 110 19 89 3 85 3 85 19 0 37 -89 53 -141 25 -22 -11 -23 -11 -10
4 22 27 7 19 -20 -10z m144 -24 c-29 -12 -31 -10 -25 16 4 25 5 25 24 8 18
-16 18 -18 1 -24z m-83 1 c0 -5 -7 -7 -15 -4 -8 4 -12 10 -9 15 6 11 24 2 24
-11z"/>
<path d="M1364 1739 c-13 -15 -15 -22 -6 -31 17 -17 95 -11 109 8 7 10 13 11
18 5 3 -6 1 -11 -4 -11 -23 0 -10 -16 22 -26 17 -6 41 -15 52 -19 16 -7 14 -1
-10 26 -34 41 -62 55 -122 62 -33 4 -46 1 -59 -14z m24 -27 c-29 -5 -34 6 -12
22 17 13 20 12 25 -2 4 -12 0 -18 -13 -20z"/>
<path d="M1202 1704 c-7 -14 -8 -23 -2 -19 15 9 32 45 22 45 -5 0 -14 -12 -20
-26z"/>
<path d="M1180 1626 c-17 -25 -26 -46 -21 -46 13 0 66 78 58 86 -3 3 -19 -15
-37 -40z"/>
<path d="M1300 1616 c0 -8 9 -20 21 -26 19 -11 20 -10 10 9 -15 27 -31 36 -31
17z"/>
<path d="M1176 1543 c-11 -11 -6 -23 8 -23 8 0 17 4 20 9 7 10 -19 23 -28 14z"/>
<path d="M1277 1538 c-15 -12 -14 -13 13 -14 19 -1 30 4 30 12 0 17 -21 18
-43 2z"/>
<path d="M1347 1513 c-4 -3 -7 -11 -7 -17 0 -6 5 -5 12 2 6 6 9 14 7 17 -3 3
-9 2 -12 -2z"/>
<path d="M1130 1500 c0 -5 5 -10 11 -10 5 0 7 5 4 10 -3 6 -8 10 -11 10 -2 0
-4 -4 -4 -10z"/>
<path d="M1233 1443 c9 -2 23 -2 30 0 6 3 -1 5 -18 5 -16 0 -22 -2 -12 -5z"/>
<path d="M1250 1399 c-13 -6 -34 -8 -46 -5 -12 3 -27 0 -33 -8 -6 -7 -23 -12
-37 -10 -34 3 -53 -35 -34 -70 16 -32 44 -38 69 -17 24 21 132 28 174 12 29
-11 57 7 57 37 0 32 -11 39 -85 58 -5 1 -17 4 -25 7 -8 3 -26 1 -40 -4z m89
-38 c43 -22 51 -41 17 -41 -13 0 -27 4 -30 8 -8 13 -176 13 -176 0 0 -6 -7 -8
-15 -4 -8 3 -15 1 -15 -4 0 -6 -4 -10 -10 -10 -23 0 -7 21 33 41 80 42 129 44
196 10z"/>
<path d="M1125 2179 c-4 -6 -5 -12 -2 -15 2 -3 7 2 10 11 7 17 1 20 -8 4z"/>
<path d="M786 1687 c-5 -26 -3 -43 5 -53 21 -25 29 0 16 46 l-13 45 -8 -38z
m18 -33 c3 -8 2 -12 -4 -9 -6 3 -10 10 -10 16 0 14 7 11 14 -7z"/>
<path d="M801 1574 c0 -11 3 -14 6 -6 3 7 2 16 -1 19 -3 4 -6 -2 -5 -13z"/>
<path d="M802 1480 c0 -14 2 -19 5 -12 2 6 2 18 0 25 -3 6 -5 1 -5 -13z"/>
<path d="M1676 1455 c-9 -14 -15 -25 -13 -25 2 0 13 11 25 25 12 14 18 25 13
25 -5 0 -16 -11 -25 -25z"/>
<path d="M1552 1035 c0 -16 2 -22 5 -12 2 9 2 23 0 30 -3 6 -5 -1 -5 -18z"/>
<path d="M1563 973 c4 -7 10 -44 13 -83 5 -70 4 -74 -29 -124 -58 -84 -150
-176 -178 -176 -28 0 -123 -43 -134 -60 -4 -6 -4 -14 0 -18 3 -4 11 1 16 11
16 28 39 21 39 -13 0 -24 10 -37 58 -71 198 -146 199 -146 212 -196 7 -27 25
-91 40 -143 l26 -95 467 -3 467 -2 0 62 c0 35 -10 97 -21 138 -11 41 -27 99
-34 127 -7 29 -29 81 -48 115 -69 122 -156 176 -336 208 -64 11 -184 52 -205
69 -6 5 -33 16 -61 24 -65 21 -117 40 -133 50 -6 5 -32 39 -57 77 -24 38 -59
79 -77 91 -17 13 -28 18 -25 12z"/>
<path d="M911 884 c-12 -15 -21 -37 -21 -49 0 -12 -10 -35 -22 -51 -12 -15
-23 -34 -24 -42 -2 -8 -4 -15 -6 -17 -13 -10 -293 -125 -306 -125 -18 0 -153
-42 -215 -68 -63 -26 -104 -89 -192 -295 -47 -112 -82 -223 -73 -232 3 -3 245
-4 538 -3 l533 3 -59 60 c-33 33 -83 81 -113 106 -60 53 -62 69 -14 106 35 27
30 30 87 -42 14 -16 27 -27 30 -24 4 4 -20 36 -53 72 -32 36 -62 75 -66 87 -9
28 19 72 41 63 14 -5 15 -3 5 15 -16 30 -14 49 10 73 16 16 28 19 54 15 27 -5
36 -3 44 13 6 10 31 29 57 41 l46 23 22 -28 c16 -20 28 -26 41 -22 16 7 16 9
2 30 -11 17 -27 23 -68 27 -67 7 -136 39 -194 93 l-45 42 -1 78 c-1 42 -5 77
-10 77 -4 0 -17 -12 -28 -26z m20 -60 c-5 -16 -10 -21 -10 -12 -1 18 10 51 15
45 2 -1 -1 -16 -5 -33z"/>
<path d="M1085 500 c10 -11 20 -20 23 -20 3 0 -3 9 -13 20 -10 11 -20 20 -23
20 -3 0 3 -9 13 -20z"/>
<path d="M1470 286 c0 -2 8 -10 18 -17 15 -13 16 -12 3 4 -13 16 -21 21 -21
13z"/>
</g>
</svg>
